<svg width="96" height="96" xmlns="http://www.w3.org/2000/svg" xmlns:xlink="http://www.w3.org/1999/xlink" xml:space="preserve" overflow="hidden"><g transform="translate(-504 -323)"><path d="M585.4 344.908 585.014 344.908C584.959 341.91 583.519 339.107 581.114 337.317L581.053 337.271 580.988 337.23C579.393 336.182 577.529 335.617 575.621 335.605 574.618 335.599 573.62 335.747 572.662 336.046 570.763 332.391 566.981 330.104 562.862 330.119 562.032 330.138 561.206 330.226 560.391 330.384L560.332 330.394 560.269 330.408C555.259 331.555 551.697 336 551.67 341.14 551.67 341.194 551.67 341.307 551.67 341.307 551.228 341.231 550.779 341.198 550.331 341.207 547.39 341.213 544.627 342.617 542.887 344.988 540.828 347.77 540.419 351.443 541.814 354.61L541.837 354.663 541.863 354.716C543.401 357.744 546.413 359.746 549.8 359.992L549.886 360 585.291 360C589.414 359.957 592.792 356.712 593 352.594L593 352.554 593 352.514C593 348.315 589.599 344.911 585.4 344.908ZM585.275 358 549.975 358C547.284 357.808 544.888 356.226 543.654 353.826 542.544 351.316 542.862 348.403 544.489 346.192 545.854 344.328 548.023 343.222 550.333 343.211 550.742 343.212 551.151 343.24 551.556 343.296L553.656 343.686C553.661 343.687 553.667 343.684 553.668 343.678 553.668 343.677 553.668 343.677 553.668 343.676L553.668 341.3C553.622 337.036 556.55 333.315 560.705 332.355 561.413 332.217 562.131 332.137 562.852 332.117 566.29 332.1 569.437 334.044 570.962 337.126L571.674 338.549C571.677 338.552 571.683 338.552 571.686 338.549L573.228 337.956C574 337.712 574.805 337.591 575.614 337.598 577.142 337.611 578.633 338.067 579.907 338.91 581.836 340.343 582.984 342.597 583.009 345L583.009 346.9C583.009 346.905 583.013 346.91 583.019 346.91L585.394 346.91C588.487 346.907 590.997 349.411 591 352.504 591 352.507 591 352.511 591 352.514 590.853 355.574 588.338 357.984 585.275 358Z" fill="#6E95AA"/><path d="M554 368 516 368C513.791 368 512 369.791 512 372L512 397C512 399.209 513.791 401 516 401L531 401 531 407 525 407 525 409 545 409 545 407 539 407 539 401 554 401C556.209 401 558 399.209 558 397L558 372C558 369.791 556.209 368 554 368ZM537 407 533 407 533 401 537 401ZM556 397C556 398.105 555.105 399 554 399L516 399C514.895 399 514 398.105 514 397L514 372C514 370.895 514.895 370 516 370L554 370C555.105 370 556 370.895 556 372Z" fill="#6E95AA"/><path d="M516 397 554 397 554 372 516 372ZM518 374 552 374 552 395 518 395Z" fill="#6E95AA"/><path d="M522.958 363.592C522.375 362.292 522.052 360.89 522.007 359.466 521.951 353.19 526.994 348.056 533.27 348 533.337 347.999 533.405 347.999 533.472 348L533.562 348C533.575 348 533.578 348.008 533.569 348.017L528.293 353.293 529.707 354.707 536.414 348 529.707 341.293 528.293 342.707 531.651 346.065C531.659 346.073 531.651 346.081 531.645 346.082 524.464 346.876 519.286 353.341 520.079 360.522 520.227 361.864 520.583 363.175 521.132 364.408Z" fill="#6E95AA"/><path d="M576.042 365.408C576.625 366.708 576.948 368.11 576.993 369.534 577.049 375.81 572.006 380.944 565.73 381 565.663 381.001 565.595 381.001 565.528 381L565.438 381C565.425 381 565.422 380.992 565.431 380.983L570.707 375.707 569.293 374.293 562.586 381 569.293 387.707 570.707 386.293 567.349 382.935C567.341 382.927 567.349 382.919 567.355 382.918 574.536 382.124 579.714 375.659 578.921 368.478 578.773 367.136 578.417 365.825 577.868 364.592Z" fill="#6E95AA"/></g></svg>