<svg width="96" height="96" xmlns="http://www.w3.org/2000/svg" xmlns:xlink="http://www.w3.org/1999/xlink" xml:space="preserve" overflow="hidden"><g transform="translate(-320 -419)"><path d="M350.38 489.62 327.76 467 349.88 444.88 354.12 449.12 336.24 467 354.62 485.38 350.38 489.62Z" fill="#6E95AA"/><path d="M385.12 489.62 380.88 485.38 399.26 467 381.38 449.12 385.62 444.88 407.74 467 385.12 489.62Z" fill="#6E95AA"/><path d="M373 467C373 469.761 370.761 472 368 472 365.239 472 363 469.761 363 467 363 464.239 365.239 462 368 462 370.761 462 373 464.239 373 467Z" fill="#6E95AA"/><path d="M357 467C357 469.761 354.761 472 352 472 349.239 472 347 469.761 347 467 347 464.239 349.239 462 352 462 354.761 462 357 464.239 357 467Z" fill="#6E95AA"/><path d="M389 467C389 469.761 386.761 472 384 472 381.239 472 379 469.761 379 467 379 464.239 381.239 462 384 462 386.761 462 389 464.239 389 467Z" fill="#6E95AA"/></g></svg>