<svg width="96" height="96" xmlns="http://www.w3.org/2000/svg" xmlns:xlink="http://www.w3.org/1999/xlink" xml:space="preserve" overflow="hidden"><g transform="translate(-724 -294)"><path d="M776.1 376.1 745 363.2 767.8 307.9 799 320.8 776.1 376.1ZM782.8 306 789.7 308.9C790.7 309.3 791.1 310.4 790.7 311.3 790.3 312.3 789.2 312.7 788.3 312.3L781.4 309.4C780.4 309 780 307.9 780.4 307 780.7 306.1 781.8 305.6 782.8 306ZM806.7 311.8 768.7 296.1C767.7 295.7 766.7 296.2 766.3 297.1L736.3 369.7C735.9 370.7 736.4 371.7 737.3 372.1L775.3 387.8C776.3 388.2 777.3 387.7 777.7 386.8L807.6 314.2C808.1 313.3 807.6 312.2 806.7 311.8L806.7 311.8Z" fill="#FFFFFF"/><path d="M794.4 370.7 792.1 367.3 796.6 364.3 795.3 357.7 800.9 353.9 799.6 347.3 805.2 343.6 804.1 338.3 808 337.5 809.6 345.4 804 349.2 805.3 355.8 799.7 359.5 801.1 366.2Z" fill="#FFFFFF"/><path d="M735.9 346.6 734.4 338.6 740 334.9 738.6 328.3 744.2 324.5 742.9 317.9 749.6 313.4 751.9 316.7 747.4 319.7 748.7 326.3 743.1 330.1 744.4 336.7 738.8 340.5 739.9 345.8Z" fill="#FFFFFF"/></g></svg>