<svg width="96" height="92" xmlns="http://www.w3.org/2000/svg" xmlns:xlink="http://www.w3.org/1999/xlink" xml:space="preserve" overflow="hidden"><g transform="translate(-289 -279)"><path d="M49.9292 78.6792 20.125 66.3167 41.975 13.3208 71.875 25.6833 49.9292 78.6792ZM56.35 11.5 62.9625 14.2792C63.9208 14.6625 64.3042 15.7167 63.9208 16.5792 63.5375 17.5375 62.4833 17.9208 61.6208 17.5375L55.0083 14.7583C54.05 14.375 53.6667 13.3208 54.05 12.4583 54.3375 11.5958 55.3917 11.1167 56.35 11.5ZM79.2542 17.0583 42.8375 2.0125C41.8792 1.62917 40.9208 2.10833 40.5375 2.97083L11.7875 72.5458C11.4042 73.5042 11.8833 74.4625 12.7458 74.8458L49.1625 89.8917C50.1208 90.275 51.0792 89.7958 51.4625 88.9333L80.1167 19.3583C80.5958 18.4958 80.1167 17.4417 79.2542 17.0583L79.2542 17.0583Z" fill="#6E95AA" transform="matrix(1.04348 0 0 1 289 279)"/><path d="M67.4667 73.5042 65.2625 70.2458 69.575 67.3708 68.3292 61.0458 73.6958 57.4042 72.45 51.0792 77.8167 47.5333 76.7625 42.4542 80.5 41.6875 82.0333 49.2583 76.6667 52.9 77.9125 59.225 72.5458 62.7708 73.8875 69.1917Z" fill="#6E95AA" transform="matrix(1.04348 0 0 1 289 279)"/><path d="M11.4042 50.4083 9.96667 42.7417 15.3333 39.1958 13.9917 32.8708 19.3583 29.2292 18.1125 22.9042 24.5333 18.5917 26.7375 21.7542 22.425 24.6292 23.6708 30.9542 18.3042 34.5958 19.55 40.9208 14.1833 44.5625 15.2375 49.6417Z" fill="#6E95AA" transform="matrix(1.04348 0 0 1 289 279)"/></g></svg>